HIERARCHY
ROOT Hips
{
	OFFSET -0.001795 -0.223333 0.028219
	CHANNELS 6 Xposition Yposition Zposition Zrotation Yrotation Xrotation 
	JOINT LeftUpLeg
	{
		OFFSET 0.069520 -0.091406 -0.006815
		CHANNELS 3 Zrotation Yrotation Xrotation
		JOINT LeftLeg
		{
			OFFSET 0.034277 -0.375199 -0.004496
			CHANNELS 3 Zrotation Yrotation Xrotation
			JOINT LeftFoot
			{
				OFFSET -0.013596 -0.397961 -0.043693
				CHANNELS 3 Zrotation Yrotation Xrotation
				JOINT LeftToe
				{
					OFFSET 0.026358 -0.055791 0.119288
					CHANNELS 3 Zrotation Yrotation Xrotation
					End Site
					{
						OFFSET 0.000000 0.000000 0.000000
					}
				}
			}
		}
	}
	JOINT RightUpLeg
	{
		OFFSET -0.067670 -0.090522 -0.004320
		CHANNELS 3 Zrotation Yrotation Xrotation
		JOINT RightLeg
		{
			OFFSET -0.038290 -0.382569 -0.008850
			CHANNELS 3 Zrotation Yrotation Xrotation
			JOINT RightFoot
			{
				OFFSET 0.015774 -0.398415 -0.042312
				CHANNELS 3 Zrotation Yrotation Xrotation
				JOINT RightToe
				{
					OFFSET -0.025372 -0.048144 0.123348
					CHANNELS 3 Zrotation Yrotation Xrotation
					End Site
					{
						OFFSET 0.000000 0.000000 0.000000
					}
				}
			}
		}
	}
	JOINT Spine
	{
		OFFSET -0.002533 0.108963 -0.026696
		CHANNELS 3 Zrotation Yrotation Xrotation
		JOINT Spine1
		{
			OFFSET 0.005487 0.135180 0.001092
			CHANNELS 3 Zrotation Yrotation Xrotation
			JOINT Spine2
			{
				OFFSET 0.001457 0.052922 0.025425
				CHANNELS 3 Zrotation Yrotation Xrotation
				JOINT Neck
				{
					OFFSET -0.002778 0.213870 -0.042857
					CHANNELS 3 Zrotation Yrotation Xrotation
					JOINT Head
					{
						OFFSET 0.005152 0.064970 0.051349
						CHANNELS 3 Zrotation Yrotation Xrotation
						End Site
						{
							OFFSET 0.000000 0.000000 0.000000
						}
					}
				}
				JOINT LeftShoulder
				{
					OFFSET 0.078845 0.121749 -0.034090
					CHANNELS 3 Zrotation Yrotation Xrotation
					JOINT LeftArm
					{
						OFFSET 0.090977 0.030469 -0.008868
						CHANNELS 3 Zrotation Yrotation Xrotation
						JOINT LeftForeArm
						{
							OFFSET 0.259612 -0.012772 -0.027456
							CHANNELS 3 Zrotation Yrotation Xrotation
							JOINT LeftHand
							{
								OFFSET 0.249234 0.008986 -0.001171
								CHANNELS 3 Zrotation Yrotation Xrotation
								End Site
								{
									OFFSET 0.000000 0.000000 0.000000
								}
							}
						}
					}
				}
				JOINT RightShoulder
				{
					OFFSET -0.081759 0.118833 -0.038615
					CHANNELS 3 Zrotation Yrotation Xrotation
					JOINT RightArm
					{
						OFFSET -0.096012 0.032551 -0.009143
						CHANNELS 3 Zrotation Yrotation Xrotation
						JOINT RightForeArm
						{
							OFFSET -0.253742 -0.013329 -0.021401
							CHANNELS 3 Zrotation Yrotation Xrotation
							JOINT RightHand
							{
								OFFSET -0.255298 0.007772 -0.005559
								CHANNELS 3 Zrotation Yrotation Xrotation
								End Site
								{
									OFFSET 0.000000 0.000000 0.000000
								}
							}
						}
					}
				}
			}
		}
	}
}
MOTION
Frames: 11
Frame Time: 0.050000
0.136946 0.942585 0.044425 -0.845705 -3.946228 1.108542 10.928175 0.016770 -8.381729 -4.525151 0.673391 10.791364 2.602893 10.116010 21.133912 0.000000 0.000000 0.000000 -8.235533 0.376866 -2.933155 3.269502 -0.245643 4.955447 -9.742877 -22.820556 18.374733 0.000000 0.000000 0.000000 6.366290 -1.100723 11.048805 -6.572356 2.037467 -26.889781 0.006182 11.039231 27.051051 12.619667 -4.968618 -23.922308 0.000000 0.000000 0.000000 -21.466362 -4.198629 -1.287605 -51.539143 -7.580252 -4.907021 1.345894 -37.754137 0.906675 0.000000 0.000000 0.000000 27.972971 -0.494171 1.050764 53.848885 45.061578 13.216916 -43.825338 75.132826 -24.754387 0.000000 0.000000 0.000000 
0.137393 0.942420 0.045604 -0.853470 -3.297402 1.440556 10.987339 -0.006674 -8.702374 -4.616415 0.670793 10.577126 2.331972 9.807202 20.919356 0.000000 0.000000 0.000000 -8.453524 0.367927 -2.784127 3.620439 -0.300064 5.147603 -9.360443 -22.209114 17.009431 0.000000 0.000000 0.000000 6.040313 -1.099263 11.259847 -6.366488 1.988973 -27.199612 0.205996 11.265392 26.721253 12.643607 -4.613926 -25.104905 0.000000 0.000000 0.000000 -21.494750 -3.928071 -1.660118 -51.910463 -7.079046 -5.066459 0.635872 -36.404516 1.031466 0.000000 0.000000 0.000000 29.113520 -0.363545 1.396318 53.557043 43.842939 12.331525 -33.786091 71.765143 -15.776372 0.000000 0.000000 0.000000 
0.137989 0.941874 0.046935 -0.827447 -2.761790 1.569929 11.163614 -0.013217 -8.988596 -4.988493 0.737314 10.747465 2.101230 9.529569 20.671372 0.000000 0.000000 0.000000 -8.523690 0.357524 -2.719448 3.994429 -0.359348 5.314198 -9.903780 -23.013246 16.633561 0.000000 0.000000 0.000000 5.811233 -1.104331 11.501165 -6.334375 1.972231 -27.641918 0.636556 11.759772 27.039540 12.771314 -4.460524 -25.601861 0.000000 0.000000 0.000000 -21.914362 -3.763382 -2.083569 -51.566052 -6.771907 -5.093377 0.469865 -35.731009 0.981570 0.000000 0.000000 0.000000 30.106027 -0.808105 1.467059 52.951298 41.539529 10.674193 -28.024196 69.751757 -10.925605 0.000000 0.000000 0.000000 
0.138674 0.941105 0.048897 -0.685009 -1.887616 1.858271 11.029350 -0.058776 -9.309535 -5.039322 0.720041 10.607295 1.763573 9.115553 20.253382 0.000000 0.000000 0.000000 -8.761753 0.347957 -2.802771 4.221750 -0.403402 5.639205 -10.263716 -23.516420 16.373272 0.000000 0.000000 0.000000 5.690139 -1.114174 11.596771 -6.269908 1.962979 -27.829340 0.766387 11.882460 26.805116 12.246720 -3.876171 -26.231180 0.000000 0.000000 0.000000 -22.306317 -3.561558 -2.507357 -51.482967 -5.999767 -5.285065 0.351755 -35.161093 0.924205 0.000000 0.000000 0.000000 31.312298 -1.487572 1.291513 52.513134 38.252220 8.676084 -19.369499 68.402960 -4.738245 0.000000 0.000000 0.000000 
0.139420 0.940345 0.051811 -0.473984 -0.804049 2.000405 10.837607 -0.111785 -9.786764 -5.107760 0.708488 11.038063 1.303471 8.563187 19.870895 0.000000 0.000000 0.000000 -8.860062 0.323420 -2.700569 4.174828 -0.411790 5.979616 -10.922114 -24.458648 16.493706 0.000000 0.000000 0.000000 5.478124 -1.095369 11.493815 -6.408283 2.001069 -27.831031 0.827233 12.086290 26.861273 11.872905 -3.622288 -25.618531 0.000000 0.000000 0.000000 -23.306242 -3.616738 -2.979342 -50.494169 -5.190642 -5.347560 0.695795 -35.016107 0.715373 0.000000 0.000000 0.000000 32.608521 -2.116715 1.258032 50.928453 34.385409 6.092311 -12.495926 66.614928 -0.098639 0.000000 0.000000 0.000000 
0.140106 0.939605 0.055730 -0.249524 0.118031 2.247741 10.476421 -0.175059 -9.954435 -4.918677 0.639942 10.940927 0.951991 8.106960 19.411358 0.000000 0.000000 0.000000 -9.211061 0.307948 -2.730683 4.214726 -0.432037 6.434511 -11.059356 -24.598474 16.603152 0.000000 0.000000 0.000000 5.371301 -1.066176 11.145118 -6.385243 2.015691 -27.401589 0.668485 12.446356 26.325678 11.793392 -3.324876 -25.959030 0.000000 0.000000 0.000000 -23.709317 -3.526084 -3.482105 -50.499890 -3.988180 -5.640606 0.606765 -34.074004 0.617416 0.000000 0.000000 0.000000 33.801139 -3.355843 0.739423 50.739678 29.694571 3.729114 -5.837192 62.482933 3.854684 0.000000 0.000000 0.000000 
0.140734 0.939139 0.060175 -0.104425 1.313225 2.366420 10.047000 -0.246759 -10.112078 -4.424368 0.504228 11.036595 0.456762 7.480657 18.952906 0.000000 0.000000 0.000000 -9.199635 0.275379 -2.520638 4.200587 -0.450144 6.553801 -12.078737 -25.980727 17.633352 0.000000 0.000000 0.000000 5.386598 -1.041259 10.696953 -6.819174 2.124603 -27.201946 0.894330 12.320566 26.396597 11.210253 -2.912983 -25.718185 0.000000 0.000000 0.000000 -24.523530 -3.212827 -4.087976 -49.941673 -3.088794 -5.798139 1.208767 -33.091342 0.368661 0.000000 0.000000 0.000000 34.747853 -4.158522 0.436409 50.025046 24.908531 1.301211 -2.559174 56.782632 4.990311 0.000000 0.000000 0.000000 
0.141114 0.938743 0.064587 0.128557 2.438296 2.523582 9.550652 -0.318017 -10.226014 -3.946846 0.376517 11.020960 -0.019798 6.877689 18.580475 0.000000 0.000000 0.000000 -9.329866 0.245418 -2.338033 4.048980 -0.444284 6.969003 -12.419827 -26.382529 17.946780 0.000000 0.000000 0.000000 5.491780 -1.038166 10.405057 -6.791276 2.126521 -27.262779 0.552825 12.577164 26.614620 11.036497 -2.552259 -26.179254 0.000000 0.000000 0.000000 -25.155703 -3.259926 -4.598073 -50.037283 -2.165394 -6.024517 2.760206 -31.686283 -0.158862 0.000000 0.000000 0.000000 35.265979 -5.891237 -0.442878 51.073150 19.450266 -1.094156 -0.773984 51.092752 5.257532 0.000000 0.000000 0.000000 
0.141231 0.938543 0.068270 0.233396 3.748765 2.686824 9.398375 -0.371207 -10.382496 -3.759039 0.305909 10.902497 -0.619579 6.137022 18.292972 0.000000 0.000000 0.000000 -9.242031 0.216343 -2.466740 4.083418 -0.477647 7.712227 -13.358808 -27.572256 18.864160 0.000000 0.000000 0.000000 5.817442 -1.049197 10.003300 -7.293644 2.266227 -26.795552 0.310694 11.815396 26.378340 10.095678 -1.974295 -26.137186 0.000000 0.000000 0.000000 -25.714034 -2.851302 -5.035496 -50.010658 -1.623743 -6.153487 3.689576 -30.189983 -0.398178 0.000000 0.000000 0.000000 35.566302 -6.762132 -1.099646 52.309797 14.565330 -3.096350 -1.851787 45.319668 3.984857 0.000000 0.000000 0.000000 
0.141012 0.938427 0.070890 0.419363 4.599720 2.687944 9.347185 -0.401176 -10.535896 -3.904335 0.309851 11.144318 -1.044446 5.641224 18.252891 0.000000 0.000000 0.000000 -9.158964 0.197539 -2.622405 3.977412 -0.481211 8.783743 -13.886271 -28.292417 18.940437 0.000000 0.000000 0.000000 5.999792 -1.098466 10.223120 -7.467741 2.274855 -27.388774 0.148117 12.012349 26.975535 9.886477 -1.673166 -26.476113 0.000000 0.000000 0.000000 -26.344420 -3.115102 -5.331758 -49.649183 -0.887851 -6.296406 4.792297 -29.385743 -0.716970 0.000000 0.000000 0.000000 36.345734 -7.927479 -1.643478 52.815775 11.666594 -4.529878 -1.162570 40.665882 3.713715 0.000000 0.000000 0.000000 
0.140529 0.938230 0.072371 0.473815 5.190837 2.782742 9.538499 -0.413168 -10.771874 -4.212065 0.352604 11.305188 -1.336654 5.302579 18.241596 0.000000 0.000000 0.000000 -8.987127 0.197440 -3.165995 4.048241 -0.521556 10.135375 -14.396749 -29.045440 18.815142 0.000000 0.000000 0.000000 6.337876 -1.148756 10.271378 -7.559464 2.312001 -27.152115 -0.344547 11.754565 26.744490 9.786089 -1.545079 -26.731104 0.000000 0.000000 0.000000 -26.396943 -3.103587 -5.416239 -49.922073 -0.819098 -6.321062 5.627798 -28.505174 -0.915862 0.000000 0.000000 0.000000 36.259212 -8.283787 -1.898065 53.368927 9.466144 -5.416708 -0.587303 37.277994 3.415341 0.000000 0.000000 0.000000 
